<svg width="35" height="35" viewBox="0 0 35 35" fill="none" xmlns="http://www.w3.org/2000/svg">
<mask id="mask0_2704_2837" style="mask-type:luminance" maskUnits="userSpaceOnUse" x="0" y="0" width="35" height="35">
<path d="M0 3.8147e-06H35V35H0V3.8147e-06Z" fill="white"/>
</mask>
<g mask="url(#mask0_2704_2837)">
<path d="M14.9229 20.9592L15.2804 21.5494C15.8134 22.4294 16.1001 23.485 16.1001 24.5678C16.1001 25.2292 15.9931 25.8846 15.7848 26.4984L15.3084 27.9023H19.6926L19.2162 26.4984C19.0079 25.8846 18.9008 25.2292 18.9008 24.5678C18.9008 23.485 19.1875 22.4294 19.7206 21.5494L20.078 20.9594" stroke="#D5FA00" stroke-width="0.996094" stroke-miterlimit="10" stroke-linecap="round" stroke-linejoin="round"/>
<path d="M8.51531 7.4337H5.28369C5.00403 7.4337 4.78569 7.67405 4.81167 7.95248C4.89199 8.81354 5.08422 9.93415 5.52377 11.0955C6.26178 13.0455 7.46935 14.5596 9.13068 15.625" stroke="#D5FA00" stroke-width="0.996094" stroke-miterlimit="10" stroke-linecap="round" stroke-linejoin="round"/>
<path d="M11.8437 19.332C6.54854 17.9998 4.24818 14.5477 3.25007 11.848C2.15816 8.89485 2.3791 6.24299 2.38901 6.13156C2.44404 5.51455 2.96111 5.04157 3.58058 5.04157H8.51476" stroke="#D5FA00" stroke-width="0.996094" stroke-miterlimit="10" stroke-linecap="round" stroke-linejoin="round"/>
<path d="M26.4854 7.43379H29.717C29.9966 7.43379 30.215 7.67414 30.189 7.95257C30.1437 8.43799 30.0629 9.00592 29.9222 9.61719" stroke="#D5FA00" stroke-width="0.996094" stroke-miterlimit="10" stroke-linecap="round" stroke-linejoin="round"/>
<path d="M23.1562 19.332C28.4515 17.9999 30.7519 14.5477 31.75 11.848C32.842 8.89485 32.621 6.24299 32.6111 6.13156C32.5561 5.51455 32.039 5.04157 31.4195 5.04157H26.4854" stroke="#D5FA00" stroke-width="0.996094" stroke-miterlimit="10" stroke-linecap="round" stroke-linejoin="round"/>
<path d="M29.1463 11.8739C28.4139 13.4206 27.3477 14.6547 25.957 15.5684" stroke="#D5FA00" stroke-width="0.996094" stroke-miterlimit="10" stroke-linecap="round" stroke-linejoin="round"/>
<path d="M14.0713 0.512305H27.0849C27.4341 0.512305 27.7171 0.795449 27.7171 1.14456V2.732C27.7171 3.08111 27.4341 3.36426 27.0849 3.36426H7.91644C7.56726 3.36426 7.28418 3.08111 7.28418 2.732V1.14456C7.28418 0.795449 7.56726 0.512305 7.91644 0.512305H11.6674" stroke="#D5FA00" stroke-width="0.996094" stroke-miterlimit="10" stroke-linecap="round" stroke-linejoin="round"/>
<path d="M17.5001 21.335C12.5376 21.335 8.51465 17.312 8.51465 12.3495V3.3641H26.4855V12.3495C26.4855 17.312 22.4626 21.335 17.5001 21.335Z" stroke="#D5FA00" stroke-width="0.996094" stroke-miterlimit="10" stroke-linecap="round" stroke-linejoin="round"/>
<path d="M22.958 31.1953H12.042V29.6086C12.042 28.6663 12.8059 27.9024 13.7482 27.9024H21.2518C22.1941 27.9024 22.958 28.6663 22.958 29.6086V31.1953Z" stroke="#D5FA00" stroke-width="0.996094" stroke-miterlimit="10" stroke-linecap="round" stroke-linejoin="round"/>
<path d="M25.3373 34.4883H9.66403C9.41972 34.4883 9.22168 34.2902 9.22168 34.0459V31.6376C9.22168 31.3934 9.41972 31.1953 9.66403 31.1953H25.3373C25.5816 31.1953 25.7796 31.3934 25.7796 31.6376V34.0459C25.7796 34.2902 25.5816 34.4883 25.3373 34.4883Z" stroke="#D5FA00" stroke-width="0.996094" stroke-miterlimit="10" stroke-linecap="round" stroke-linejoin="round"/>
<path d="M18.1364 8.53057L18.7939 9.86276C18.8972 10.0721 19.0969 10.2172 19.3279 10.2508L20.7981 10.4644C21.3799 10.5489 21.6122 11.2638 21.1912 11.6741L20.1274 12.7111C19.9602 12.8741 19.8839 13.1088 19.9234 13.3389L20.1745 14.8032C20.2739 15.3824 19.6658 15.8243 19.1454 15.5507L17.8305 14.8595C17.6239 14.7508 17.377 14.7508 17.1704 14.8595L15.8554 15.5507C15.3351 15.8243 14.727 15.3824 14.8263 14.8032L15.0775 13.3389C15.1169 13.1088 15.0406 12.8741 14.8735 12.7111L13.8097 11.6741C13.3887 11.2638 13.621 10.5489 14.2028 10.4644L15.6729 10.2508C15.9039 10.2172 16.1036 10.0721 16.2069 9.86276L16.8645 8.53057C17.1246 8.00338 17.8763 8.00338 18.1364 8.53057Z" stroke="#D5FA00" stroke-width="0.996094" stroke-miterlimit="10" stroke-linecap="round" stroke-linejoin="round"/>
</g>
</svg>
