<svg width="43" height="43" viewBox="0 0 43 43" fill="none" xmlns="http://www.w3.org/2000/svg">
<g clip-path="url(#clip0_2704_2744)" filter="url(#filter0_d_2704_2744)">
<path d="M38.3236 34.5801H15.6125C15.3947 34.5801 15.2236 34.409 15.2236 34.1913C15.2236 33.9735 15.3947 33.8024 15.6125 33.8024H37.9347V23.8779C37.9347 20.689 35.3369 18.0913 32.148 18.0913H29.7525C29.5347 18.0913 29.3636 17.9201 29.3636 17.7024C29.3636 17.4846 29.5347 17.3135 29.7525 17.3135H32.148C35.7647 17.3135 38.7125 20.2613 38.7125 23.8779V34.1835C38.7125 34.409 38.5336 34.5801 38.3236 34.5801ZM15.6047 24.2668C15.3869 24.2668 15.2158 24.0957 15.2158 23.8779C15.2158 20.2613 18.1558 17.3135 21.7803 17.3135H24.1758C24.3936 17.3135 24.5647 17.4846 24.5647 17.7024C24.5647 17.9201 24.3936 18.0913 24.1758 18.0913H21.7803C18.5914 18.0913 15.9936 20.689 15.9936 23.8779C15.9936 24.0957 15.8225 24.2668 15.6047 24.2668Z" fill="#D5FA00"/>
<path d="M26.9682 21.1086C25.2182 21.1086 23.7871 19.6852 23.7871 17.9275V15.8508C23.7871 15.633 23.9582 15.4619 24.176 15.4619C24.3938 15.4619 24.5649 15.633 24.5649 15.8508V17.9275C24.5649 19.2497 25.6382 20.3308 26.9682 20.3308C28.2904 20.3308 29.3716 19.2575 29.3716 17.9275V15.8508C29.3716 15.633 29.5427 15.4619 29.7604 15.4619C29.9782 15.4619 30.1493 15.633 30.1493 15.8508V17.9275C30.1416 19.6852 28.7182 21.1086 26.9682 21.1086Z" fill="#D5FA00"/>
<path d="M26.9679 17.0955C23.9657 17.0955 21.5234 14.6533 21.5234 11.6511V9.50439C21.5234 9.49661 21.5234 9.49661 21.5234 9.48883C21.6012 7.17883 22.0601 5.91883 22.8845 5.7555C24.9301 5.3355 28.4923 5.45994 30.6779 6.01994C30.7401 6.0355 30.7945 6.06661 30.8412 6.11328C31.8445 7.03883 32.3501 10.6866 32.4045 11.0988V11.1533V11.6588C32.4123 14.6455 29.9701 17.0955 26.9679 17.0955ZM22.2934 9.50439V11.6433C22.2934 14.2177 24.3857 16.3099 26.9601 16.3099C29.5345 16.3099 31.6268 14.2177 31.6268 11.6433V11.1611C31.4401 9.75328 30.9423 7.39661 30.3745 6.7355C28.3134 6.22994 24.9145 6.12106 23.0323 6.50217C23.0323 6.50994 22.3945 6.71994 22.2934 9.50439Z" fill="#D5FA00"/>
<path d="M26.968 34.5799C26.7502 34.5799 26.5791 34.4088 26.5791 34.1911V20.7199C26.5791 20.5022 26.7502 20.3311 26.968 20.3311C27.1858 20.3311 27.3569 20.5022 27.3569 20.7199V34.1833C27.3569 34.4088 27.178 34.5799 26.968 34.5799Z" fill="#D5FA00"/>
<path d="M21.2361 34.58C21.0183 34.58 20.8472 34.4089 20.8472 34.1911V24.8967C20.8472 24.6789 21.0183 24.5078 21.2361 24.5078C21.4538 24.5078 21.6249 24.6789 21.6249 24.8967V34.1911C21.6249 34.4089 21.4538 34.58 21.2361 34.58Z" fill="#D5FA00"/>
<path d="M21.2358 28.5991H15.6047C15.3869 28.5991 15.2158 28.428 15.2158 28.2102C15.2158 27.9924 15.3869 27.8213 15.6047 27.8213H21.2358C21.4536 27.8213 21.6247 27.9924 21.6247 28.2102C21.6247 28.428 21.4536 28.5991 21.2358 28.5991Z" fill="#D5FA00"/>
<path d="M32.0232 11.5264C31.9299 11.5264 31.8443 11.4953 31.7665 11.4331C31.6032 11.2931 31.5876 11.0442 31.7276 10.8808C32.9254 9.48863 32.5443 6.4864 32.5365 6.45529C32.5365 6.43974 32.5365 6.43196 32.5365 6.4164C32.4743 4.61196 30.6465 3.64752 30.631 3.63974C30.5065 3.57752 30.4288 3.44529 30.421 3.30529C30.3976 2.61307 29.161 2.47307 29.1454 2.47307C29.0443 2.46529 28.951 2.41085 28.8888 2.34085C28.3443 1.70307 27.7376 1.36085 27.0843 1.31418C25.9643 1.2364 25.0621 2.03752 25.0543 2.04529C24.9532 2.13863 24.8054 2.16974 24.6732 2.12307C23.9265 1.88974 23.3432 1.92863 22.8765 2.26307C21.7565 3.06418 21.6943 5.24974 21.6943 5.27307C21.6943 5.3664 21.6554 5.45974 21.5932 5.52974C20.7221 6.47863 20.551 7.64529 21.0721 8.98307C21.4843 10.0408 22.1921 10.8108 22.1999 10.8186C22.3476 10.9742 22.3399 11.2231 22.1765 11.3708C22.0132 11.5186 21.7721 11.5108 21.6243 11.3475C21.5932 11.3164 20.8232 10.4764 20.3488 9.29418C19.7187 7.71529 19.9132 6.2764 20.9165 5.11752C20.9476 4.54974 21.1576 2.54307 22.4176 1.64085C23.0399 1.18974 23.8099 1.08863 24.7043 1.32974C25.0699 1.04974 26.0032 0.466404 27.131 0.544182C27.9632 0.598627 28.7176 0.995293 29.3787 1.7264C30.0476 1.82752 31.0043 2.20085 31.1754 3.0564C31.7199 3.39085 33.2443 4.48752 33.3143 6.37751C33.3532 6.68085 33.7032 9.79196 32.3188 11.3942C32.241 11.4797 32.1321 11.5264 32.0232 11.5264Z" fill="#D5FA00"/>
<path d="M32.6926 34.58C32.4748 34.58 32.3037 34.4089 32.3037 34.1911V24.8967C32.3037 24.6789 32.4748 24.5078 32.6926 24.5078C32.9104 24.5078 33.0815 24.6789 33.0815 24.8967V34.1911C33.0815 34.4089 32.9104 34.58 32.6926 34.58Z" fill="#D5FA00"/>
<path d="M38.3237 28.5991H32.6926C32.4748 28.5991 32.3037 28.428 32.3037 28.2102C32.3037 27.9924 32.4748 27.8213 32.6926 27.8213H38.3237C38.5415 27.8213 38.7126 27.9924 38.7126 28.2102C38.7126 28.428 38.5337 28.5991 38.3237 28.5991Z" fill="#D5FA00"/>
<path d="M15.6045 34.5797H4.72336C4.50558 34.5797 4.33447 34.4086 4.33447 34.1908V20.4397C4.33447 20.2219 4.50558 20.0508 4.72336 20.0508H15.6123C15.83 20.0508 16.0011 20.2219 16.0011 20.4397V34.1908C15.9934 34.4086 15.8223 34.5797 15.6045 34.5797ZM5.11225 33.8019H15.2234V20.8286H5.11225V33.8019Z" fill="#D5FA00"/>
<path d="M11.8947 23.4807H8.43355C7.58578 23.4807 6.89355 22.7885 6.89355 21.933V20.4319C6.89355 20.2141 7.06467 20.043 7.28244 20.043C7.50022 20.043 7.67133 20.2141 7.67133 20.4319V21.933C7.67133 22.353 8.01355 22.703 8.43355 22.703H11.8947C12.3147 22.703 12.6647 22.3607 12.6647 21.933V20.4319C12.6647 20.2141 12.8358 20.043 13.0536 20.043C13.2713 20.043 13.4424 20.2141 13.4424 20.4319V21.933C13.4424 22.7885 12.7502 23.4807 11.8947 23.4807Z" fill="#D5FA00"/>
<path d="M13.6831 25.6508H6.64426C6.42648 25.6508 6.25537 25.4797 6.25537 25.2619C6.25537 25.0442 6.42648 24.873 6.64426 24.873H13.6909C13.9087 24.873 14.0798 25.0442 14.0798 25.2619C14.0798 25.4797 13.9009 25.6508 13.6831 25.6508Z" fill="#D5FA00"/>
<path d="M13.6831 27.9067H6.64426C6.42648 27.9067 6.25537 27.7356 6.25537 27.5178C6.25537 27.3 6.42648 27.1289 6.64426 27.1289H13.6909C13.9087 27.1289 14.0798 27.3 14.0798 27.5178C14.0798 27.7356 13.9009 27.9067 13.6831 27.9067Z" fill="#D5FA00"/>
<path d="M13.6831 30.1538H6.64426C6.42648 30.1538 6.25537 29.9826 6.25537 29.7649C6.25537 29.5471 6.42648 29.376 6.64426 29.376H13.6909C13.9087 29.376 14.0798 29.5471 14.0798 29.7649C14.0798 29.9826 13.9009 30.1538 13.6831 30.1538Z" fill="#D5FA00"/>
<path d="M13.6831 32.4096H6.64426C6.42648 32.4096 6.25537 32.2385 6.25537 32.0207C6.25537 31.8029 6.42648 31.6318 6.64426 31.6318H13.6909C13.9087 31.6318 14.0798 31.8029 14.0798 32.0207C14.0798 32.2385 13.9009 32.4096 13.6831 32.4096Z" fill="#D5FA00"/>
</g>
<defs>
<filter id="filter0_d_2704_2744" x="0" y="0" width="43" height="43" filterUnits="userSpaceOnUse" color-interpolation-filters="sRGB">
<feFlood flood-opacity="0" result="BackgroundImageFix"/>
<feColorMatrix in="SourceAlpha" type="matrix" values="0 0 0 0 0 0 0 0 0 0 0 0 0 0 0 0 0 0 127 0" result="hardAlpha"/>
<feOffset dy="4"/>
<feGaussianBlur stdDeviation="2"/>
<feComposite in2="hardAlpha" operator="out"/>
<feColorMatrix type="matrix" values="0 0 0 0 0 0 0 0 0 0 0 0 0 0 0 0 0 0 0.25 0"/>
<feBlend mode="normal" in2="BackgroundImageFix" result="effect1_dropShadow_2704_2744"/>
<feBlend mode="normal" in="SourceGraphic" in2="effect1_dropShadow_2704_2744" result="shape"/>
</filter>
<clipPath id="clip0_2704_2744">
<rect width="35" height="35" fill="white" transform="translate(4)"/>
</clipPath>
</defs>
</svg>
