<svg width="35" height="35" viewBox="0 0 35 35" fill="none" xmlns="http://www.w3.org/2000/svg">
<mask id="mask0_2704_2793" style="mask-type:luminance" maskUnits="userSpaceOnUse" x="0" y="0" width="35" height="35">
<path d="M0 3.8147e-06H35V35H0V3.8147e-06Z" fill="white"/>
</mask>
<g mask="url(#mask0_2704_2793)">
<path d="M21.0921 19.3248V22.0202C21.0921 25.3472 13.9072 25.2115 13.9072 22.0202V19.3248" stroke="#D5FA00" stroke-width="1.01563" stroke-miterlimit="10" stroke-linecap="round" stroke-linejoin="round"/>
<path d="M26.5449 22.3341C24.9018 21.8032 22.7355 21.4989 21.0924 21.2877M13.9076 21.2877C12.2645 21.4989 10.0982 21.8032 8.45507 22.3341C5.93808 23.146 3.5606 25.3607 3.17308 28.9939L2.58594 34.4873H17.5H32.4141L31.8269 28.9939C31.5499 26.3994 30.2594 24.5276 28.6259 23.3747" stroke="#D5FA00" stroke-width="1.01563" stroke-miterlimit="10" stroke-linecap="round" stroke-linejoin="round"/>
<path d="M19.16 3.59469H15.8389C15.5076 3.59469 15.2344 3.86792 15.2344 4.19926V5.07316C15.2344 5.40642 15.5076 5.67773 15.8389 5.67773H19.16C19.4933 5.67773 19.7646 5.40642 19.7646 5.07316V4.19926C19.7646 3.86792 19.4933 3.59469 19.16 3.59469Z" stroke="#D5FA00" stroke-width="1.01563" stroke-miterlimit="10" stroke-linecap="round" stroke-linejoin="round"/>
<path d="M7.79199 31.978V34.4873" stroke="#D5FA00" stroke-width="1.01563" stroke-miterlimit="10" stroke-linecap="round" stroke-linejoin="round"/>
<path d="M27.0869 31.978V34.4873" stroke="#D5FA00" stroke-width="1.01563" stroke-miterlimit="10" stroke-linecap="round" stroke-linejoin="round"/>
<path d="M25.1925 8.76074V6.53236C25.1925 -1.4935 9.80762 -1.4935 9.80762 6.53236V8.76074" stroke="#D5FA00" stroke-width="1.01563" stroke-miterlimit="10" stroke-linecap="round" stroke-linejoin="round"/>
<path d="M16.1352 8.76037H9.80689L8.7063 10.0625C7.25694 11.7812 27.7436 11.7812 26.2923 10.0625L25.1918 8.76037H18.689" stroke="#D5FA00" stroke-width="1.01563" stroke-miterlimit="10" stroke-linecap="round" stroke-linejoin="round"/>
<path d="M14.8066 13.523V13.959" stroke="#D5FA00" stroke-width="1.01563" stroke-miterlimit="10" stroke-linecap="round" stroke-linejoin="round"/>
<path d="M20.1934 13.523V13.959" stroke="#D5FA00" stroke-width="1.01563" stroke-miterlimit="10" stroke-linecap="round" stroke-linejoin="round"/>
<path d="M16.6777 17.8075C16.9374 17.947 17.7589 18.0613 18.2414 17.8075" stroke="#D5FA00" stroke-width="1.01563" stroke-miterlimit="10" stroke-linecap="round" stroke-linejoin="round"/>
<path d="M8.97258 10.5469C8.39323 10.5973 7.86427 11.3181 7.97857 11.8994L8.14133 12.7249C8.26144 13.3392 8.65286 13.8623 9.27876 13.8623H10.4336" stroke="#D5FA00" stroke-width="1.01563" stroke-miterlimit="10" stroke-linecap="round" stroke-linejoin="round"/>
<path d="M26.0274 10.5469C26.6067 10.5973 27.1357 11.3181 27.0214 11.8994L26.8586 12.7249C26.7385 13.3392 26.3471 13.8623 25.7212 13.8623H24.5664" stroke="#D5FA00" stroke-width="1.01563" stroke-miterlimit="10" stroke-linecap="round" stroke-linejoin="round"/>
<path d="M25.008 10.8627C24.8917 11.7675 24.7212 12.6918 24.5546 13.9455C24.2659 16.1254 21.621 20.5666 17.4996 20.5182C13.3783 20.5666 10.7334 16.1254 10.4446 13.9455C10.278 12.6918 10.1075 11.7675 9.99121 10.8627" stroke="#D5FA00" stroke-width="1.01563" stroke-miterlimit="10" stroke-linecap="round" stroke-linejoin="round"/>
<path d="M21.3076 30.7588H23.8188" stroke="#D5FA00" stroke-width="1.01563" stroke-miterlimit="10" stroke-linecap="round" stroke-linejoin="round"/>
<path d="M10.7277 30.5731H14.2425C14.4324 30.5731 14.5875 30.7282 14.5875 30.9181V34.4873H10.3828V30.9181C10.3828 30.7282 10.5378 30.5731 10.7277 30.5731Z" stroke="#D5FA00" stroke-width="1.01563" stroke-miterlimit="10" stroke-linecap="round" stroke-linejoin="round"/>
</g>
</svg>
