<svg width="101" height="16" viewBox="0 0 101 16" fill="none" xmlns="http://www.w3.org/2000/svg">
<path d="M6 0H11L5 16H0L6 0Z" fill="#D5FA00"/>
<path d="M16 0H21L15 16H10L16 0Z" fill="#D5FA00"/>
<path d="M26 0H31L25 16H20L26 0Z" fill="#D5FA00"/>
<path d="M36 0H41L35 16H30L36 0Z" fill="#D5FA00"/>
<path d="M46 0H51L45 16H40L46 0Z" fill="#D5FA00"/>
<path d="M56 0H61L55 16H50L56 0Z" fill="#D5FA00"/>
<path d="M66 0H71L65 16H60L66 0Z" fill="#D5FA00"/>
<path d="M76 0H81L75 16H70L76 0Z" fill="#D5FA00"/>
<path d="M86 0H91L85 16H80L86 0Z" fill="#D5FA00"/>
<path d="M96 0H101L95 16H90L96 0Z" fill="#D5FA00"/>
</svg>
