<svg width="35" height="35" viewBox="0 0 35 35" fill="none" xmlns="http://www.w3.org/2000/svg">
<g clip-path="url(#clip0_2704_2873)">
<path d="M28.1641 18.1836C28.5416 18.1836 28.8477 17.8775 28.8477 17.5C28.8477 17.1225 28.5416 16.8164 28.1641 16.8164C27.7865 16.8164 27.4805 17.1225 27.4805 17.5C27.4805 17.8775 27.7865 18.1836 28.1641 18.1836Z" fill="#D5FA00"/>
<path d="M34.3164 3.07617H28.8477V1.02539C28.8477 0.647842 28.5416 0.341797 28.1641 0.341797H24.0625C23.685 0.341797 23.3789 0.647842 23.3789 1.02539V3.07617H17.9102C17.5326 3.07617 17.2266 3.38222 17.2266 3.75977V7.89325C16.5302 7.52438 15.7373 7.31445 14.8959 7.31445H6.29549C3.54033 7.31445 1.29883 9.55596 1.29883 12.3111C1.29883 13.187 1.53029 14.0509 1.96827 14.8094L3.28016 17.0817C1.18863 19.0782 0 21.8401 0 24.7461C0 27.5473 1.11091 30.0951 3.12819 31.9201C5.07979 33.6858 7.73179 34.6582 10.5957 34.6582C13.4576 34.6582 16.1079 33.6872 18.059 31.9238H23.3789V33.9746C23.3789 34.3522 23.685 34.6582 24.0625 34.6582H28.1641C28.5416 34.6582 28.8477 34.3522 28.8477 33.9746V31.9238H34.3164C34.694 31.9238 35 31.6178 35 31.2402V25.7715C35 25.3939 34.694 25.0879 34.3164 25.0879H28.8477V20.5762C28.8477 20.1995 28.5407 19.8926 28.1641 19.8926C27.7874 19.8926 27.4805 20.1995 27.4805 20.5762V25.0879H24.7461V9.91211H27.4805V14.4238C27.4805 14.8005 27.7874 15.1074 28.1641 15.1074C28.5407 15.1074 28.8477 14.8005 28.8477 14.4238V9.91211H34.3164C34.694 9.91211 35 9.60606 35 9.22852V3.75977C35 3.38222 34.694 3.07617 34.3164 3.07617ZM24.7461 1.70898H27.4805V3.07617H24.7461V1.70898ZM18.5938 4.44336H24.0625H28.1641H33.6328V5.81055H18.5938V4.44336ZM1.36719 24.7461C1.36719 22.0492 2.54297 19.4945 4.59307 17.7369C4.84285 17.5228 4.90472 17.1611 4.74018 16.8762L3.15226 14.1258C2.83418 13.5749 2.66602 12.9473 2.66602 12.3111C2.66602 10.3098 4.2942 8.68164 6.29549 8.68164H14.8959C16.8972 8.68164 18.5254 10.3098 18.5254 12.3111C18.5254 12.9473 18.3572 13.5749 18.0392 14.1258L16.4512 16.8762C16.2867 17.1611 16.3486 17.5228 16.5983 17.7369C18.6484 19.4945 19.8242 22.0492 19.8242 24.7461C19.8242 29.6175 15.8568 33.291 10.5957 33.291C5.33463 33.291 1.36719 29.6175 1.36719 24.7461ZM27.4805 33.291H24.7461V31.9238H27.4805V33.291ZM33.6328 30.5566H28.1641H24.0625H19.3043C19.6267 30.1248 19.9101 29.6679 20.1524 29.1895H33.6328V30.5566ZM28.1641 26.4551H33.6328V27.8223H20.7149C20.858 27.3789 20.9696 26.9223 21.0486 26.4551H24.0625H28.1641ZM23.3789 25.0879H21.1852C21.1889 24.9743 21.1914 24.8605 21.1914 24.7461C21.1914 21.8401 20.0028 19.0782 17.9112 17.0817L19.2231 14.8094C19.6611 14.0509 19.8926 13.187 19.8926 12.3111C19.8926 11.4422 19.6692 10.6246 19.2775 9.91211H23.3789V25.0879ZM33.6328 8.54492H28.1641H24.0625H18.5938V7.17773H33.6328V8.54492Z" fill="#D5FA00"/>
<path d="M17.1582 12.3111C17.1582 11.0637 16.1433 10.0488 14.8959 10.0488H6.29549C5.04807 10.0488 4.0332 11.0637 4.0332 12.3111C4.0332 12.7077 4.138 13.0988 4.33631 13.4423L5.86011 16.0815C6.03668 16.3874 6.4173 16.5084 6.73818 16.3605C7.9519 15.8012 9.24978 15.5176 10.5957 15.5176C11.9416 15.5176 13.2395 15.8012 14.4533 16.3605C14.5456 16.4031 14.643 16.4233 14.739 16.4233C14.9764 16.4233 15.2056 16.2993 15.3314 16.0815L16.8552 13.4423C17.0534 13.0988 17.1582 12.7077 17.1582 12.3111ZM15.6711 12.7587L14.4499 14.8737C13.2236 14.3934 11.9301 14.1504 10.5957 14.1504C9.26133 14.1504 7.96776 14.3934 6.74146 14.8738L5.52029 12.7587C5.44182 12.6228 5.40039 12.4681 5.40039 12.3111C5.40039 11.8176 5.80193 11.416 6.29549 11.416H14.8959C15.3895 11.416 15.791 11.8176 15.791 12.3111C15.791 12.4681 15.7496 12.6228 15.6711 12.7587Z" fill="#D5FA00"/>
</g>
<defs>
<clipPath id="clip0_2704_2873">
<rect width="35" height="35" fill="white"/>
</clipPath>
</defs>
</svg>
