<svg width="44" height="44" viewBox="0 0 44 44" fill="none" xmlns="http://www.w3.org/2000/svg">
<path d="M28.875 35.75H19.25V37.125H28.875V35.75Z" fill="#D5FA00"/>
<path d="M4.125 4.125H5.5V3.4375C5.5 2.89049 5.7173 2.36589 6.10409 1.97909C6.49089 1.5923 7.01549 1.375 7.5625 1.375C8.10951 1.375 8.63411 1.5923 9.02091 1.97909C9.4077 2.36589 9.625 2.89049 9.625 3.4375V4.125H12.375V3.4375C12.375 2.89049 12.5923 2.36589 12.9791 1.97909C13.3659 1.5923 13.8905 1.375 14.4375 1.375C14.9845 1.375 15.5091 1.5923 15.8959 1.97909C16.2827 2.36589 16.5 2.89049 16.5 3.4375V4.125H19.25V3.4375C19.25 2.89049 19.4673 2.36589 19.8541 1.97909C20.2409 1.5923 20.7655 1.375 21.3125 1.375C21.8595 1.375 22.3841 1.5923 22.7709 1.97909C23.1577 2.36589 23.375 2.89049 23.375 3.4375V4.125H26.125V3.4375C26.125 2.89049 26.3423 2.36589 26.7291 1.97909C27.1159 1.5923 27.6405 1.375 28.1875 1.375C28.7345 1.375 29.2591 1.5923 29.6459 1.97909C30.0327 2.36589 30.25 2.89049 30.25 3.4375V4.125H31.625C32.3541 4.12582 33.0531 4.41581 33.5686 4.93136C34.0842 5.44691 34.3742 6.14591 34.375 6.875H33C32.9996 6.51046 32.8546 6.16097 32.5968 5.90321C32.339 5.64544 31.9895 5.50043 31.625 5.5H30.25V6.1875C30.25 6.73451 30.0327 7.25911 29.6459 7.64591C29.2591 8.0327 28.7345 8.25 28.1875 8.25C27.6405 8.25 27.1159 8.0327 26.7291 7.64591C26.3423 7.25911 26.125 6.73451 26.125 6.1875V5.5H23.375V6.1875C23.375 6.73451 23.1577 7.25911 22.7709 7.64591C22.3841 8.0327 21.8595 8.25 21.3125 8.25C20.7655 8.25 20.2409 8.0327 19.8541 7.64591C19.4673 7.25911 19.25 6.73451 19.25 6.1875V5.5H16.5V6.1875C16.5 6.73451 16.2827 7.25911 15.8959 7.64591C15.5091 8.0327 14.9845 8.25 14.4375 8.25C13.8905 8.25 13.3659 8.0327 12.9791 7.64591C12.5923 7.25911 12.375 6.73451 12.375 6.1875V5.5H9.625V6.1875C9.625 6.73451 9.4077 7.25911 9.02091 7.64591C8.63411 8.0327 8.10951 8.25 7.5625 8.25C7.01549 8.25 6.49089 8.0327 6.10409 7.64591C5.7173 7.25911 5.5 6.73451 5.5 6.1875V5.5H4.125C3.76046 5.50043 3.41097 5.64544 3.1532 5.90321C2.89544 6.16097 2.75043 6.51046 2.75 6.875V11.6875H33V8.25H34.375V19.25H33V13.0625H2.75V31.625C2.75043 31.9895 2.89544 32.339 3.1532 32.5968C3.41097 32.8546 3.76046 32.9996 4.125 33V34.375C3.64203 34.3753 3.16759 34.2477 2.75 34.005V34.375C2.75043 34.7395 2.89544 35.089 3.1532 35.3468C3.41097 35.6046 3.76046 35.7496 4.125 35.75H6.875V37.125H4.125C3.39591 37.1242 2.69691 36.8342 2.18136 36.3186C1.66581 35.8031 1.37582 35.1041 1.375 34.375V6.875C1.37582 6.14591 1.66581 5.44691 2.18136 4.93136C2.69691 4.41581 3.39591 4.12582 4.125 4.125ZM27.5 6.1875C27.5 6.36984 27.5724 6.5447 27.7014 6.67364C27.8303 6.80257 28.0052 6.875 28.1875 6.875C28.3698 6.875 28.5447 6.80257 28.6736 6.67364C28.8026 6.5447 28.875 6.36984 28.875 6.1875V3.4375C28.875 3.25516 28.8026 3.0803 28.6736 2.95136C28.5447 2.82243 28.3698 2.75 28.1875 2.75C28.0052 2.75 27.8303 2.82243 27.7014 2.95136C27.5724 3.0803 27.5 3.25516 27.5 3.4375V6.1875ZM20.625 6.1875C20.625 6.36984 20.6974 6.5447 20.8264 6.67364C20.9553 6.80257 21.1302 6.875 21.3125 6.875C21.4948 6.875 21.6697 6.80257 21.7986 6.67364C21.9276 6.5447 22 6.36984 22 6.1875V3.4375C22 3.25516 21.9276 3.0803 21.7986 2.95136C21.6697 2.82243 21.4948 2.75 21.3125 2.75C21.1302 2.75 20.9553 2.82243 20.8264 2.95136C20.6974 3.0803 20.625 3.25516 20.625 3.4375V6.1875ZM13.75 6.1875C13.75 6.36984 13.8224 6.5447 13.9514 6.67364C14.0803 6.80257 14.2552 6.875 14.4375 6.875C14.6198 6.875 14.7947 6.80257 14.9236 6.67364C15.0526 6.5447 15.125 6.36984 15.125 6.1875V3.4375C15.125 3.25516 15.0526 3.0803 14.9236 2.95136C14.7947 2.82243 14.6198 2.75 14.4375 2.75C14.2552 2.75 14.0803 2.82243 13.9514 2.95136C13.8224 3.0803 13.75 3.25516 13.75 3.4375V6.1875ZM6.875 6.1875C6.875 6.36984 6.94743 6.5447 7.07636 6.67364C7.2053 6.80257 7.38016 6.875 7.5625 6.875C7.74484 6.875 7.9197 6.80257 8.04864 6.67364C8.17757 6.5447 8.25 6.36984 8.25 6.1875V3.4375C8.25 3.25516 8.17757 3.0803 8.04864 2.95136C7.9197 2.82243 7.74484 2.75 7.5625 2.75C7.38016 2.75 7.2053 2.82243 7.07636 2.95136C6.94743 3.0803 6.875 3.25516 6.875 3.4375V6.1875Z" fill="#D5FA00"/>
<path d="M24.0625 15.125H22.6875V16.5H24.0625V15.125Z" fill="#D5FA00"/>
<path d="M29.5625 15.125H28.1875V16.5H29.5625V15.125Z" fill="#D5FA00"/>
<path d="M13.0625 15.125H11.6875V16.5H13.0625V15.125Z" fill="#D5FA00"/>
<path d="M7.5625 15.125H6.1875V16.5H7.5625V15.125Z" fill="#D5FA00"/>
<path d="M18.5625 15.125H17.1875V16.5H18.5625V15.125Z" fill="#D5FA00"/>
<path d="M24.0625 19.9375H22.6875V21.3125H24.0625V19.9375Z" fill="#D5FA00"/>
<path d="M29.5625 19.9375H28.1875V21.3125H29.5625V19.9375Z" fill="#D5FA00"/>
<path d="M13.0625 19.9375H11.6875V21.3125H13.0625V19.9375Z" fill="#D5FA00"/>
<path d="M7.5625 19.9375H6.1875V21.3125H7.5625V19.9375Z" fill="#D5FA00"/>
<path d="M18.5625 19.9375H17.1875V21.3125H18.5625V19.9375Z" fill="#D5FA00"/>
<path d="M24.0625 24.75H22.6875V26.125H24.0625V24.75Z" fill="#D5FA00"/>
<path d="M29.5625 24.75H28.1875V26.125H29.5625V24.75Z" fill="#D5FA00"/>
<path d="M7.5625 24.75H6.1875V26.125H7.5625V24.75Z" fill="#D5FA00"/>
<path d="M6.1875 34.375C6.00517 34.375 5.8303 34.3026 5.70136 34.1736C5.57243 34.0447 5.5 33.8698 5.5 33.6875V29.5625C5.5 29.3802 5.57243 29.2053 5.70136 29.0764C5.8303 28.9474 6.00517 28.875 6.1875 28.875H8.25V26.125C8.24964 25.6422 8.37651 25.1677 8.61783 24.7495C8.85916 24.3313 9.20641 23.9841 9.62463 23.7428C10.0429 23.5015 10.5173 23.3746 11.0001 23.375C11.4829 23.3754 11.9572 23.503 12.375 23.745V23.375C12.375 22.6457 12.6647 21.9462 13.1805 21.4305C13.6962 20.9147 14.3957 20.625 15.125 20.625C15.8543 20.625 16.5538 20.9147 17.0695 21.4305C17.5853 21.9462 17.875 22.6457 17.875 23.375V24.75H18.5625V26.125H17.875V28.875H30.25V23.375C30.25 22.6457 30.5397 21.9462 31.0555 21.4305C31.5712 20.9147 32.2707 20.625 33 20.625C33.7293 20.625 34.4288 20.9147 34.9445 21.4305C35.4603 21.9462 35.75 22.6457 35.75 23.375V23.745C36.2966 23.4283 36.9357 23.3098 37.5595 23.4093C38.1833 23.5089 38.7537 23.8205 39.1746 24.2915L38.1501 25.2085C37.9644 25.0009 37.7201 24.8545 37.4495 24.7888C37.1789 24.723 36.8947 24.741 36.6345 24.8404C36.3743 24.9398 36.1504 25.1158 35.9925 25.3452C35.8345 25.5746 35.75 25.8465 35.75 26.125V37.125C35.75 37.4897 35.8949 37.8394 36.1527 38.0973C36.4106 38.3551 36.7603 38.5 37.125 38.5C37.4897 38.5 37.8394 38.3551 38.0973 38.0973C38.3551 37.8394 38.5 37.4897 38.5 37.125V26.125H39.875V28.875H41.9375C42.1198 28.875 42.2947 28.9474 42.4236 29.0764C42.5526 29.2053 42.625 29.3802 42.625 29.5625V33.6875C42.625 33.8698 42.5526 34.0447 42.4236 34.1736C42.2947 34.3026 42.1198 34.375 41.9375 34.375H39.875V37.125C39.8754 37.6079 39.7486 38.0823 39.5073 38.5006C39.266 38.9189 38.9188 39.2662 38.5006 39.5075C38.0823 39.7489 37.6079 39.8758 37.125 39.8754C36.6421 39.875 36.1679 39.7475 35.75 39.5055V39.875C35.75 40.6043 35.4603 41.3038 34.9445 41.8195C34.4288 42.3353 33.7293 42.625 33 42.625C32.2707 42.625 31.5712 42.3353 31.0555 41.8195C30.5397 41.3038 30.25 40.6043 30.25 39.875V34.375H19.25V33H30.25V30.25H17.875V39.875C17.875 40.6043 17.5853 41.3038 17.0695 41.8195C16.5538 42.3353 15.8543 42.625 15.125 42.625C14.3957 42.625 13.6962 42.3353 13.1805 41.8195C12.6647 41.3038 12.375 40.6043 12.375 39.875V39.5055C11.9571 39.7475 11.4829 39.875 11 39.8754C10.5171 39.8758 10.0427 39.7489 9.62444 39.5075C9.20621 39.2662 8.85896 38.9189 8.61767 38.5006C8.37638 38.0823 8.24957 37.6079 8.25 37.125V34.375H6.1875ZM41.25 33V30.25H39.875V33H41.25ZM31.625 39.875C31.625 40.2397 31.7699 40.5894 32.0277 40.8473C32.2856 41.1051 32.6353 41.25 33 41.25C33.3647 41.25 33.7144 41.1051 33.9723 40.8473C34.2301 40.5894 34.375 40.2397 34.375 39.875V23.375C34.375 23.0103 34.2301 22.6606 33.9723 22.4027C33.7144 22.1449 33.3647 22 33 22C32.6353 22 32.2856 22.1449 32.0277 22.4027C31.7699 22.6606 31.625 23.0103 31.625 23.375V39.875ZM13.75 39.875C13.75 40.2397 13.8949 40.5894 14.1527 40.8473C14.4106 41.1051 14.7603 41.25 15.125 41.25C15.4897 41.25 15.8394 41.1051 16.0973 40.8473C16.3551 40.5894 16.5 40.2397 16.5 39.875V23.375C16.5 23.0103 16.3551 22.6606 16.0973 22.4027C15.8394 22.1449 15.4897 22 15.125 22C14.7603 22 14.4106 22.1449 14.1527 22.4027C13.8949 22.6606 13.75 23.0103 13.75 23.375V39.875ZM9.625 37.125C9.625 37.4897 9.76986 37.8394 10.0277 38.0973C10.2856 38.3551 10.6353 38.5 11 38.5C11.3647 38.5 11.7144 38.3551 11.9723 38.0973C12.2301 37.8394 12.375 37.4897 12.375 37.125V26.125C12.375 25.7603 12.2301 25.4106 11.9723 25.1527C11.7144 24.8949 11.3647 24.75 11 24.75C10.6353 24.75 10.2856 24.8949 10.0277 25.1527C9.76986 25.4106 9.625 25.7603 9.625 26.125V37.125ZM6.875 30.25V33H8.25V30.25H6.875Z" fill="#D5FA00"/>
</svg>
