<svg width="63" height="63" viewBox="0 0 63 63" fill="none" xmlns="http://www.w3.org/2000/svg">
<path d="M60.4192 13.7765H57.464V11.3208C57.464 9.37394 55.8801 7.79004 53.9334 7.79004H51.1169C49.17 7.79004 47.5862 9.37394 47.5862 11.3208V21.4299H42.8665V18.7159C42.8665 16.7461 41.264 15.1438 39.2944 15.1438C38.5204 15.1438 37.8041 15.392 37.2188 15.812C36.6433 14.6094 35.4145 13.7765 33.9946 13.7765C32.6524 13.7765 31.4809 14.5207 30.8707 15.6182C30.2677 15.1532 29.5135 14.8752 28.6948 14.8752C27.4523 14.8752 26.3571 15.5135 25.7171 16.4788C25.092 15.9427 24.281 15.6178 23.395 15.6178C21.4253 15.6178 19.8229 17.2201 19.8229 19.1899V21.4302H15.4142V18.8268C15.4142 18.3174 15.0012 17.9046 14.4919 17.9046C13.9826 17.9046 13.5697 18.3174 13.5697 18.8268V40.2511C13.5697 41.1809 12.8132 41.9373 11.8835 41.9373H9.06663C8.13678 41.9373 7.38042 41.1809 7.38042 40.2511V11.3208C7.38042 10.391 8.1369 9.6345 9.06663 9.6345H11.8831C12.813 9.6345 13.5693 10.391 13.5693 11.3208V14.8964C13.5693 15.4058 13.9822 15.8186 14.4916 15.8186C15.0009 15.8186 15.4138 15.4058 15.4138 14.8964V11.3208C15.4138 9.37394 13.8299 7.79004 11.8831 7.79004H9.06663C7.11974 7.79004 5.53596 9.37394 5.53596 11.3208V13.7765H2.58077C1.15771 13.7765 0 14.9342 0 16.3572V35.2145C0 36.6375 1.15771 37.7952 2.58077 37.7952H5.53596V40.2509C5.53596 42.1977 7.11986 43.7816 9.06663 43.7816H11.8831C13.83 43.7816 15.4138 42.1977 15.4138 40.2509V30.1418H18.5742V31.8258C18.5742 32.6912 18.8769 33.536 19.4268 34.2046L22.2909 37.6866V54.2877C22.2909 54.7971 22.7038 55.2099 23.2131 55.2099C23.7225 55.2099 24.1354 54.7971 24.1354 54.2877V37.3561C24.1354 37.1424 24.0611 36.9353 23.9254 36.7702L20.8513 33.0327C20.5723 32.6936 20.4185 32.2649 20.4185 31.8258V30.1418L37.8595 30.2484C38.3688 30.2484 38.7817 29.8356 38.7817 29.3262C38.7817 28.8168 38.3688 28.404 37.8595 28.404H33.6634C32.7977 28.404 32.0934 27.6996 32.0934 26.8341C32.0934 25.9684 32.7977 25.2641 33.6634 25.2641H41.5929C42.1378 25.2641 42.5811 25.7072 42.5811 26.2521V31.8257C42.5811 32.2648 42.4274 32.6936 42.1484 33.0326L39.0743 36.7701C38.9385 36.9352 38.8643 37.1422 38.8643 37.356V39.7884C38.8643 40.2978 39.2772 40.7106 39.7865 40.7106C40.2958 40.7106 40.7087 40.2978 40.7087 39.7884V37.6865L43.5728 34.2044C44.1226 33.5359 44.4254 32.6911 44.4254 31.8257V30.1417H47.5858V40.2508C47.5858 42.1976 49.1697 43.7815 51.1165 43.7815H53.933C55.8799 43.7815 57.4637 42.1976 57.4637 40.2508V37.7951H60.4189C61.8419 37.7951 62.9996 36.6374 62.9996 35.2143V16.3572C63 14.9342 61.8423 13.7765 60.4192 13.7765ZM2.58077 35.9508C2.17474 35.9508 1.84446 35.6204 1.84446 35.2145V16.3572C1.84446 15.9512 2.17474 15.621 2.58077 15.621H5.53596V35.9508H2.58077ZM39.2943 16.9882C40.247 16.9882 41.0219 17.7633 41.0219 18.7159V22.1494C41.0219 22.6363 40.8153 23.0945 40.4618 23.4197H38.1266C37.7731 23.0945 37.5665 22.6363 37.5665 22.1494V18.7159C37.5665 17.7633 38.3415 16.9882 39.2943 16.9882ZM32.2667 17.3486C32.2667 16.396 33.0418 15.621 33.9944 15.621C34.947 15.621 35.722 16.396 35.722 17.3486V22.1494C35.722 22.6363 35.5155 23.0945 35.1619 23.4197H33.6635C33.409 23.4197 33.1611 23.4486 32.9223 23.5018C32.5117 23.1776 32.2666 22.6843 32.2666 22.1494L32.2667 17.3486ZM26.9669 18.4472C26.9669 17.4946 27.7419 16.7196 28.6945 16.7196C29.6471 16.7196 30.4223 17.4946 30.4223 18.4472V22.1493C30.4223 23.102 29.6472 23.8771 28.6945 23.8771C27.7418 23.8771 26.9669 23.102 26.9669 22.1493V18.4472ZM21.667 19.1898C21.667 18.2372 22.442 17.4621 23.3946 17.4621C24.3472 17.4621 25.1223 18.2372 25.1223 19.1898V22.1494C25.1223 23.1021 24.3472 23.8772 23.3946 23.8772C22.442 23.8772 21.667 23.1021 21.667 22.1494V19.1898ZM15.4139 23.2744H20.0051C20.4777 24.6944 21.8181 25.7215 23.3948 25.7215C24.4451 25.7215 25.391 25.2656 26.0451 24.5415C26.6993 25.2654 27.6444 25.7215 28.6946 25.7215C29.4554 25.7215 30.1596 25.4801 30.7395 25.0731C30.4286 25.5876 30.2493 26.1903 30.2493 26.8341C30.2493 27.3574 30.3679 27.8536 30.5793 28.2972H15.4139V23.2744ZM44.4258 28.2974V26.2522C44.4258 25.0305 43.6482 23.987 42.5619 23.5904C42.6074 23.4873 42.6479 23.3818 42.6835 23.2744H47.5862V28.2974H44.4258ZM61.1555 35.2145C61.1555 35.6205 60.8253 35.9508 60.4192 35.9508H57.464V33.2856C57.464 32.7762 57.0511 32.3634 56.5418 32.3634C56.0325 32.3634 55.6196 32.7762 55.6196 33.2856V40.2509C55.6196 41.1808 54.8631 41.9371 53.9334 41.9371H51.1169C50.187 41.9371 49.4307 41.1808 49.4307 40.2509V11.3208C49.4307 10.391 50.1872 9.6345 51.1169 9.6345H53.9334C54.8632 9.6345 55.6196 10.391 55.6196 11.3208V29.3553C55.6196 29.8648 56.0325 30.2776 56.5418 30.2776C57.0511 30.2776 57.464 29.8648 57.464 29.3553V15.621H60.4192C60.8253 15.621 61.1555 15.9513 61.1555 16.3572V35.2145Z" fill="#D5FA00"/>
<path d="M39.7865 42.7969C39.2772 42.7969 38.8643 43.2097 38.8643 43.7191V54.288C38.8643 54.7974 39.2772 55.2102 39.7865 55.2102C40.2958 55.2102 40.7087 54.7974 40.7087 54.288V43.7191C40.7087 43.2097 40.2959 42.7969 39.7865 42.7969Z" fill="#D5FA00"/>
</svg>
