<svg width="44" height="44" viewBox="0 0 44 44" fill="none" xmlns="http://www.w3.org/2000/svg">
<g clip-path="url(#clip0_2704_2662)">
<path d="M0.537441 16.3463L3.32092 17.5916C3.73785 17.7784 4.16193 17.9577 4.5867 18.1394C5.7485 18.5993 6.87484 19.1448 7.95619 19.7707C9.22913 20.6754 10.3129 21.8202 11.1471 23.1405L11.4167 23.5066C9.8973 24.0258 8.4355 24.7005 7.0545 25.5204C6.83223 25.6594 6.70064 25.9066 6.70985 26.1688C6.71939 26.4309 6.86768 26.6682 7.09916 26.7912C7.33097 26.9143 7.61086 26.9048 7.83312 26.7657C7.89687 26.7261 14.2271 22.8149 20.5246 24.0105C25.1746 24.8941 30.3958 32.2031 30.4487 32.276L30.4538 32.2812C30.5165 32.3654 30.5966 32.4346 30.689 32.4843C30.7102 32.4959 30.7299 32.5055 30.7511 32.515C30.8424 32.5597 30.9423 32.5849 31.0442 32.5883C31.0521 32.5883 31.0603 32.5846 31.0678 32.5846C31.1359 32.5829 31.2038 32.5719 31.2689 32.5515H31.275C31.2846 32.5515 31.2904 32.5406 31.2999 32.5368C31.3592 32.5171 31.4158 32.4888 31.4676 32.4533C31.4786 32.4462 31.483 32.4342 31.4932 32.4264C31.5341 32.392 31.5709 32.3524 31.6023 32.3091C31.6323 32.2774 31.6589 32.2426 31.6821 32.2058C31.7032 32.1642 31.7199 32.1206 31.7318 32.0756C31.7486 32.0323 31.7612 31.9876 31.7693 31.9423C31.7731 31.8987 31.7731 31.855 31.7693 31.8117C31.769 31.7596 31.7625 31.7078 31.7503 31.6573C31.7496 31.645 31.7482 31.6331 31.7458 31.6212L31.573 31.1078C30.6757 28.5718 29.9332 25.984 29.35 23.358C28.9903 21.1708 28.8676 18.9515 28.9835 16.7383C28.9998 15.6761 29.0172 14.578 28.9835 13.4824C28.962 12.748 28.7142 12.0383 28.2737 11.4502L26.1086 8.54675C27.0615 8.02278 27.7296 7.09961 27.9294 6.03054C27.9857 5.63679 27.7174 5.26998 27.3253 5.20453C26.9329 5.13873 26.56 5.39816 26.485 5.78884C26.3715 6.40894 25.9869 6.94587 25.4367 7.2537C24.6209 7.59222 23.3521 7.17461 21.7744 6.04588C21.6227 5.93849 21.4359 5.8935 21.2521 5.92043C21.0084 5.88122 20.7612 5.96747 20.5945 6.14985C20.4282 6.3319 20.3644 6.58587 20.4258 6.82519L21.3708 10.4879C21.3864 10.5349 21.4069 10.5806 21.4314 10.6239C21.0881 11.0146 20.6017 11.2505 20.0821 11.2781C19.6901 11.2225 19.3349 11.0169 19.0911 10.7047L18.3974 7.79369C18.3036 7.39995 17.9085 7.15688 17.5148 7.25063C17.121 7.34472 16.878 7.73983 16.9721 8.13357L17.7043 11.2065C17.7094 11.2276 17.7265 11.243 17.7337 11.2641C17.3137 11.4673 16.8299 11.4935 16.3905 11.3374C15.9385 11.0732 15.6081 10.6423 15.4697 10.1377L15.1977 8.56789C15.1595 8.30437 14.9809 8.08244 14.7317 7.98835C14.4825 7.89426 14.2019 7.94267 13.9991 8.11517C13.7959 8.28766 13.7025 8.55664 13.7546 8.81777L14.0434 10.4776C14.0437 10.7173 13.9506 10.9481 13.7839 11.1206C13.5477 11.4588 13.1891 11.6912 12.7841 11.7697C12.4537 11.7969 12.1217 11.7407 11.8186 11.6064C11.7794 11.1918 11.7187 10.7797 11.6373 10.3713C11.1126 7.42449 10.7911 4.17432 13.6149 2.91638C16.6131 1.58208 26.2726 1.01993 27.8841 1.83401C29.3895 2.59218 34.9162 10.8011 37.9254 17.8671C40.265 23.3689 41.9746 32.2931 42.4434 34.8962C42.4928 35.1683 42.3848 35.4447 42.1645 35.6114L39.3033 37.7738C39.2372 37.8239 39.1629 37.8621 39.0834 37.8863C38.2322 38.1532 34.7134 39.2049 25.2039 41.6032C14.4617 44.3151 7.12336 36.2053 7.05007 36.1225C6.78246 35.8191 6.31917 35.7904 6.01577 36.058C5.71236 36.326 5.68373 36.7889 5.95133 37.0923C7.40461 38.593 9.06958 39.8727 10.8927 40.892C8.74061 41.7058 5.41953 42.5468 5.37862 42.557C5.01999 42.6467 4.78442 42.99 4.82976 43.3571C4.87476 43.7243 5.18669 44.0001 5.55657 44.0001C5.61691 43.9997 5.67725 43.9926 5.73588 43.9779C8.07176 43.4072 10.3626 42.6661 12.5901 41.76C16.6319 43.6909 21.2238 44.1392 25.5629 43.0264C35.1095 40.6217 38.6614 39.5567 39.5222 39.2908C39.7618 39.2158 39.9865 39.0996 40.1866 38.9479L43.0499 36.7842C43.7129 36.2861 44.0375 35.4563 43.8878 34.6406C43.4126 31.9985 41.6757 22.9404 39.273 17.2971C36.647 11.1103 30.8612 1.69186 28.5464 0.524942C26.4117 -0.550269 16.2562 0.138016 13.023 1.57765C8.91072 3.40865 9.77798 8.28425 10.1942 10.6276C10.273 11.0043 10.3285 11.3858 10.3596 11.7697C10.3596 11.9162 10.4277 13.2345 12.7841 13.2345C13.6343 13.167 14.4136 12.7341 14.9202 12.0478C15.1619 12.3076 15.451 12.5186 15.7721 12.6693C16.129 12.8329 16.5177 12.9165 16.9104 12.9144C17.5506 12.8957 18.1775 12.7279 18.7417 12.4252C18.7673 12.4075 18.7918 12.3884 18.815 12.3679C19.1702 12.5841 19.5721 12.7119 19.987 12.7409C20.0412 12.7409 20.0961 12.746 20.1503 12.746C21.0537 12.6955 21.9012 12.2912 22.509 11.621C22.8128 11.7915 23.1435 11.9087 23.4867 11.9681C23.6688 11.9991 23.8525 12.0144 24.037 12.0144C24.8504 11.9844 25.6396 11.7311 26.318 11.2818L27.0939 12.3233C27.354 12.672 27.5005 13.092 27.5142 13.527C27.5479 14.5882 27.5309 15.6689 27.5142 16.7134C27.3976 19.0306 27.5306 21.3538 27.9107 23.643C28.243 25.2354 28.6562 26.8097 29.1485 28.3601C27.0448 26.0389 23.8934 23.1548 20.7977 22.5668C18.1465 22.1219 15.4281 22.2913 12.8523 23.0621C12.8308 22.9861 12.7967 22.9141 12.752 22.8487L12.3293 22.2746C11.3867 20.7985 10.1618 19.5235 8.72459 18.5226C7.58086 17.8579 6.38906 17.2793 5.15873 16.7925C4.74283 16.6153 4.32727 16.4387 3.91853 16.2563L1.13505 15.011C0.765847 14.8456 0.332217 15.011 0.166879 15.3802C0.0011995 15.7494 0.166538 16.183 0.536078 16.3487L0.537441 16.3463ZM23.7571 10.5243C23.3685 10.4599 23.0132 10.2646 22.7507 9.97071L22.2605 8.06608C22.9972 8.48982 23.8184 8.74618 24.6656 8.81606C24.6649 8.96436 24.7109 9.10924 24.7965 9.22992L25.4449 10.1016C24.9472 10.4313 24.3516 10.5806 23.7571 10.5243Z" fill="#D5FA00"/>
<path d="M20.1198 39.4251C21.5826 39.4115 23.0386 39.2182 24.4547 38.85C24.7138 38.7917 24.9214 38.5974 24.9964 38.3427C25.0718 38.0877 25.0029 37.8123 24.8168 37.6224C24.6306 37.4329 24.3566 37.3586 24.1002 37.4291C16.0119 39.4514 13.3051 35.0367 13.1909 34.8434C12.9888 34.4926 12.5405 34.3726 12.19 34.5747C11.8393 34.7769 11.7193 35.2252 11.9214 35.5756C12.0291 35.7611 14.2041 39.4251 20.1198 39.4251Z" fill="#D5FA00"/>
<path d="M19.8822 19.8277V15.4328C19.8822 15.0281 19.5542 14.7002 19.1496 14.7002C18.7449 14.7002 18.417 15.0281 18.417 15.4328V19.8277C18.417 20.2324 18.7449 20.5603 19.1496 20.5603C19.5542 20.5603 19.8822 20.2324 19.8822 19.8277Z" fill="#D5FA00"/>
<path d="M24.2769 21.2922C24.5919 21.2922 24.8718 21.0904 24.9714 20.7914L25.704 18.5936C25.7865 18.3451 25.7302 18.0713 25.5563 17.8753C25.3825 17.6793 25.1173 17.5913 24.8606 17.6438C24.6039 17.6967 24.3949 17.8821 24.3121 18.1307L23.5794 20.3285C23.5051 20.5521 23.5426 20.7979 23.681 20.9891C23.8191 21.1804 24.041 21.2932 24.2769 21.2922Z" fill="#D5FA00"/>
<path d="M14.0221 21.2922C14.2574 21.2922 14.4783 21.179 14.616 20.9881C14.7534 20.7969 14.7909 20.5518 14.7166 20.3285L13.984 18.1307C13.9011 17.8821 13.6921 17.6967 13.4354 17.6438C13.1791 17.5913 12.9135 17.6793 12.7397 17.8753C12.5658 18.0713 12.5096 18.3451 12.5921 18.5936L13.3247 20.7914C13.4245 21.0914 13.7058 21.2932 14.0221 21.2922Z" fill="#D5FA00"/>
</g>
<defs>
<clipPath id="clip0_2704_2662">
<rect width="44" height="44" fill="white"/>
</clipPath>
</defs>
</svg>
